<svg width="28" height="28" viewBox="0 0 28 28" fill="none" xmlns="http://www.w3.org/2000/svg">
<path d="M22.61 16.7767C22.8396 17.0066 23.0217 17.2794 23.1458 17.5797C23.2699 17.88 23.3336 18.2018 23.3334 18.5267C23.3334 19.1826 23.0728 19.8117 22.6089 20.2756C22.1451 20.7394 21.516 21 20.86 21H7.14002C6.48405 21 5.85495 20.7394 5.39111 20.2756C4.92727 19.8117 4.66669 19.1826 4.66669 18.5267C4.6664 18.2018 4.73014 17.88 4.85425 17.5797C4.97836 17.2794 5.16042 17.0066 5.39002 16.7767L7.00002 15.1667V10.5C7.00002 8.64348 7.73752 6.86301 9.05027 5.55025C10.363 4.2375 12.1435 3.5 14 3.5C15.8565 3.5 17.637 4.2375 18.9498 5.55025C20.2625 6.86301 21 8.64348 21 10.5V15.1667L22.61 16.7767ZM17.5 21H10.5C10.5 21.9283 10.8688 22.8185 11.5251 23.4749C12.1815 24.1313 13.0718 24.5 14 24.5C14.9283 24.5 15.8185 24.1313 16.4749 23.4749C17.1313 22.8185 17.5 21.9283 17.5 21Z" stroke="#312802" stroke-width="1.5" stroke-linecap="round" stroke-linejoin="round"/>
<circle cx="19.7931" cy="5.31046" r="3.37931" fill="#FF3B3B"/>
</svg>
