<svg width="22" height="24" viewBox="0 0 22 24" fill="none" xmlns="http://www.w3.org/2000/svg">
<path d="M19.61 14.7767C19.8396 15.0066 20.0217 15.2794 20.1458 15.5797C20.2699 15.88 20.3336 16.2018 20.3334 16.5267C20.3334 17.1826 20.0728 17.8117 19.6089 18.2756C19.1451 18.7394 18.516 19 17.86 19H4.14002C3.48405 19 2.85495 18.7394 2.39111 18.2756C1.92727 17.8117 1.66669 17.1826 1.66669 16.5267C1.6664 16.2018 1.73014 15.88 1.85425 15.5797C1.97836 15.2794 2.16042 15.0066 2.39002 14.7767L4.00002 13.1667V8.5C4.00002 6.64348 4.73752 4.86301 6.05027 3.55025C7.36303 2.2375 9.14351 1.5 11 1.5C12.8565 1.5 14.637 2.2375 15.9498 3.55025C17.2625 4.86301 18 6.64348 18 8.5V13.1667L19.61 14.7767ZM14.5 19H7.50002C7.50002 19.9283 7.86877 20.8185 8.52515 21.4749C9.18152 22.1313 10.0718 22.5 11 22.5C11.9283 22.5 12.8185 22.1313 13.4749 21.4749C14.1313 20.8185 14.5 19.9283 14.5 19Z" stroke="#312802" stroke-width="1.5" stroke-linecap="round" stroke-linejoin="round"/>
</svg>
