<svg width="26" height="26" viewBox="0 0 26 26" fill="none" xmlns="http://www.w3.org/2000/svg">
<path d="M9.75 22.7497H4.33333C4.04602 22.7497 3.77047 22.6355 3.5673 22.4324C3.36414 22.2292 3.25 21.9537 3.25 21.6663C3.25 19.6551 4.04896 17.7263 5.47111 16.3041C6.89326 14.882 8.82211 14.083 10.8333 14.083H11.9167" stroke="#0F6D6A" stroke-width="1.5" stroke-linecap="round" stroke-linejoin="round"/>
<path d="M17.3333 8.66667C17.3333 9.73798 17.0157 10.7852 16.4205 11.676C15.8253 12.5668 14.9793 13.261 13.9895 13.671C12.9998 14.081 11.9107 14.1883 10.8599 13.9793C9.8092 13.7703 8.84404 13.2544 8.08651 12.4968C7.32897 11.7393 6.81309 10.7741 6.60408 9.72341C6.39508 8.67268 6.50235 7.58356 6.91232 6.5938C7.3223 5.60403 8.01656 4.75806 8.90733 4.16287C9.7981 3.56768 10.8454 3.25 11.9167 3.25C13.3533 3.25 14.731 3.82068 15.7468 4.8365C16.7627 5.85233 17.3333 7.23008 17.3333 8.66667ZM22.4358 15.9142L20.9192 14.3975C20.7167 14.199 20.4444 14.0878 20.1608 14.0878C19.8773 14.0878 19.605 14.199 19.4025 14.3975L14.0833 19.7167V22.75H17.1167L22.4358 17.4308C22.6343 17.2283 22.7455 16.9561 22.7455 16.6725C22.7455 16.3889 22.6343 16.1167 22.4358 15.9142Z" stroke="#0F6D6A" stroke-width="1.5" stroke-linecap="round" stroke-linejoin="round"/>
</svg>
