<svg width="20" height="15" viewBox="0 0 20 15" fill="none" xmlns="http://www.w3.org/2000/svg">
<path d="M1.68 1.41786L9.38 7.045C9.55655 7.17454 9.77499 7.24501 10 7.24501C10.225 7.24501 10.4435 7.17454 10.62 7.045L18.32 1.41786M18 14H2C1.73478 14 1.48043 13.9022 1.29289 13.728C1.10536 13.5539 1 13.3177 1 13.0714V1.92857C1 1.6823 1.10536 1.44611 1.29289 1.27197C1.48043 1.09783 1.73478 1 2 1H18C18.2652 1 18.5196 1.09783 18.7071 1.27197C18.8946 1.44611 19 1.6823 19 1.92857V13.0714C19 13.3177 18.8946 13.5539 18.7071 13.728C18.5196 13.9022 18.2652 14 18 14Z" stroke="#969696" stroke-width="1.5" stroke-linecap="round" stroke-linejoin="round"/>
</svg>
