<svg width="19" height="19" viewBox="0 0 19 19" fill="none" xmlns="http://www.w3.org/2000/svg">
<path d="M13.2778 9.5H1.00005" stroke="white" stroke-width="1.5" stroke-linecap="round" stroke-linejoin="round"/>
<path d="M4.77783 13.2782L1.00005 9.50043L4.77783 5.72266" stroke="white" stroke-width="1.5" stroke-linecap="round" stroke-linejoin="round"/>
<path d="M8.55556 5.72222V1.94444C8.55556 1.69396 8.65506 1.45374 8.83218 1.27662C9.00929 1.0995 9.24952 1 9.5 1H17.0556C17.306 1 17.5463 1.0995 17.7234 1.27662C17.9005 1.45374 18 1.69396 18 1.94444V17.0556C18 17.306 17.9005 17.5463 17.7234 17.7234C17.5463 17.9005 17.306 18 17.0556 18H9.5C9.24952 18 9.00929 17.9005 8.83218 17.7234C8.65506 17.5463 8.55556 17.306 8.55556 17.0556V13.2778" stroke="white" stroke-width="1.5" stroke-linecap="round" stroke-linejoin="round"/>
</svg>
