<svg width="23" height="23" viewBox="0 0 23 23" fill="none" xmlns="http://www.w3.org/2000/svg">
<path d="M21.1275 11.2144L17.8134 14.5221L18.5895 19.1809C18.6689 19.6131 18.6361 20.0615 18.495 20.4739C18.3539 20.8863 18.1103 21.2457 17.7925 21.5103C17.4263 21.8258 16.9764 21.9978 16.513 21.9994C16.2 22.0024 15.8908 21.9226 15.6111 21.7665L11.4161 19.4371L7.22112 21.7665C6.87236 21.9544 6.48354 22.0312 6.09783 21.9885C5.71212 21.9458 5.3446 21.7853 5.03608 21.5247C4.72755 21.2641 4.49008 20.9136 4.35003 20.5122C4.20998 20.1108 4.17282 19.6742 4.24269 19.2508L5.01876 14.592L1.70473 11.2843C1.40323 10.9869 1.1853 10.5994 1.07703 10.168C0.968758 9.73668 0.974739 9.27981 1.09425 8.85214C1.21377 8.42446 1.44175 8.0441 1.7509 7.75661C2.06005 7.46913 2.43726 7.28669 2.83737 7.23116L7.55672 6.53235L9.65421 2.22299C9.83393 1.85319 10.1004 1.54428 10.4253 1.32898C10.7503 1.11367 11.1216 1 11.5 1C11.8784 1 12.2497 1.11367 12.5747 1.32898C12.8996 1.54428 13.1661 1.85319 13.3458 2.22299L15.4433 6.53235L20.1626 7.23116C20.5627 7.28669 20.94 7.46913 21.2491 7.75661C21.5583 8.0441 21.7862 8.42446 21.9057 8.85214C22.0253 9.27981 22.0312 9.73668 21.923 10.168C21.8147 10.5994 21.5968 10.9869 21.2953 11.2843L21.1275 11.2144Z" fill="white" stroke="#0F6D6A" stroke-width="1.5"/>
</svg>
