<svg width="26" height="26" viewBox="0 0 26 26" fill="none" xmlns="http://www.w3.org/2000/svg">
<path d="M21.6667 17.333V21.6663C21.6667 21.9537 21.5525 22.2292 21.3494 22.4324C21.1462 22.6355 20.8707 22.7497 20.5833 22.7497H4.33333C4.04602 22.7497 3.77047 22.6355 3.5673 22.4324C3.36414 22.2292 3.25 21.9537 3.25 21.6663V8.66634C3.25 8.37902 3.36414 8.10347 3.5673 7.90031C3.77047 7.69714 4.04602 7.58301 4.33333 7.58301H20.5833C20.8707 7.58301 21.1462 7.69714 21.3494 7.90031C21.5525 8.10347 21.6667 8.37902 21.6667 8.66634V12.9997" stroke="#0F6D6A" stroke-width="1.5" stroke-linecap="round" stroke-linejoin="round"/>
<path d="M21.6673 13H18.4173C17.819 13 17.334 13.485 17.334 14.0833V16.25C17.334 16.8483 17.819 17.3333 18.4173 17.3333H21.6673C22.2656 17.3333 22.7507 16.8483 22.7507 16.25V14.0833C22.7507 13.485 22.2656 13 21.6673 13Z" stroke="#0F6D6A" stroke-width="1.5" stroke-linecap="round" stroke-linejoin="round"/>
<path d="M6.5 7.58342L15.3075 3.67258C15.5613 3.55901 15.8491 3.54741 16.1113 3.64018C16.3735 3.73294 16.5899 3.92297 16.7158 4.17092L18.4167 7.58342" stroke="#0F6D6A" stroke-width="1.5" stroke-linecap="round" stroke-linejoin="round"/>
</svg>
