<svg width="28" height="28" viewBox="0 0 28 28" fill="none" xmlns="http://www.w3.org/2000/svg">
<path d="M8.16666 14H14M14 3.5C16.0767 3.5 18.1068 4.11581 19.8335 5.26957C21.5602 6.42332 22.906 8.0632 23.7007 9.98182C24.4955 11.9004 24.7034 14.0116 24.2982 16.0484C23.8931 18.0852 22.8931 19.9562 21.4246 21.4246C19.9562 22.8931 18.0852 23.8931 16.0484 24.2982C14.0116 24.7034 11.9004 24.4955 9.98182 23.7007C8.0632 22.906 6.42332 21.5602 5.26956 19.8335C4.11581 18.1068 3.5 16.0767 3.5 14C3.5 11.2152 4.60624 8.54451 6.57538 6.57538C8.54451 4.60625 11.2152 3.5 14 3.5ZM19.4017 14.805L15.75 17.3017C15.5872 17.3992 15.4031 17.4556 15.2136 17.466C15.0241 17.4763 14.835 17.4402 14.6626 17.3609C14.4902 17.2816 14.3397 17.1615 14.2243 17.0109C14.1088 16.8602 14.0318 16.6838 14 16.4967V11.5033C14.0318 11.3162 14.1088 11.1398 14.2243 10.9891C14.3397 10.8385 14.4902 10.7184 14.6626 10.6391C14.835 10.5598 15.0241 10.5237 15.2136 10.534C15.4031 10.5444 15.5872 10.6008 15.75 10.6983L19.39 13.195C19.5255 13.2806 19.6373 13.3989 19.7152 13.539C19.793 13.6791 19.8345 13.8365 19.8356 13.9968C19.8368 14.1571 19.7976 14.3151 19.7218 14.4563C19.646 14.5975 19.5359 14.7174 19.4017 14.805Z" stroke="#0F6D6A" stroke-width="1.5" stroke-linecap="round" stroke-linejoin="round"/>
</svg>
