<svg width="19" height="21" viewBox="0 0 19 21" fill="none" xmlns="http://www.w3.org/2000/svg">
<path d="M17.1875 12.9792C17.3925 13.1844 17.555 13.4281 17.6658 13.6962C17.7766 13.9643 17.8335 14.2516 17.8333 14.5417C17.8333 15.1274 17.6006 15.6891 17.1865 16.1032C16.7723 16.5173 16.2106 16.75 15.625 16.75H3.37496C2.78927 16.75 2.22758 16.5173 1.81343 16.1032C1.39929 15.6891 1.16663 15.1274 1.16663 14.5417C1.16637 14.2516 1.22328 13.9643 1.33409 13.6962C1.4449 13.4281 1.60746 13.1844 1.81246 12.9792L3.24996 11.5417V7.375C3.24996 5.7174 3.90844 4.12769 5.08054 2.95558C6.25265 1.78348 7.84236 1.125 9.49996 1.125C11.1576 1.125 12.7473 1.78348 13.9194 2.95558C15.0915 4.12769 15.75 5.7174 15.75 7.375V11.5417L17.1875 12.9792ZM12.625 16.75H6.37496C6.37496 17.5788 6.7042 18.3737 7.29025 18.9597C7.8763 19.5458 8.67116 19.875 9.49996 19.875C10.3288 19.875 11.1236 19.5458 11.7097 18.9597C12.2957 18.3737 12.625 17.5788 12.625 16.75Z" stroke="#0F6D6A" stroke-width="1.5" stroke-linecap="round" stroke-linejoin="round"/>
</svg>
