<svg width="26" height="26" viewBox="0 0 26 26" fill="none" xmlns="http://www.w3.org/2000/svg">
<path d="M17.3333 9.75V7.58333C17.3333 6.43406 16.8767 5.33186 16.0641 4.5192C15.2514 3.70655 14.1492 3.25 13 3.25C11.8507 3.25 10.7485 3.70655 9.93583 4.5192C9.12317 5.33186 8.66663 6.43406 8.66663 7.58333V9.75M19.5 22.75H6.49996C6.21264 22.75 5.93709 22.6359 5.73393 22.4327C5.53076 22.2295 5.41663 21.954 5.41663 21.6667V10.8333C5.41663 10.546 5.53076 10.2705 5.73393 10.0673C5.93709 9.86414 6.21264 9.75 6.49996 9.75H19.5C19.7873 9.75 20.0628 9.86414 20.266 10.0673C20.4692 10.2705 20.5833 10.546 20.5833 10.8333V21.6667C20.5833 21.954 20.4692 22.2295 20.266 22.4327C20.0628 22.6359 19.7873 22.75 19.5 22.75Z" stroke="#0F6D6A" stroke-width="1.5" stroke-linecap="round" stroke-linejoin="round"/>
</svg>
