<svg width="16" height="20" viewBox="0 0 16 20" fill="none" xmlns="http://www.w3.org/2000/svg">
<path d="M8 15V14M12 7V5C12 3.93913 11.5786 2.92172 10.8284 2.17157C10.0783 1.42143 9.06087 1 8 1C6.93913 1 5.92172 1.42143 5.17157 2.17157C4.42143 2.92172 4 3.93913 4 5V7M9.5 12.5C9.5 12.7967 9.41203 13.0867 9.2472 13.3334C9.08238 13.58 8.84811 13.7723 8.57403 13.8858C8.29994 13.9994 7.99834 14.0291 7.70736 13.9712C7.41639 13.9133 7.14912 13.7704 6.93934 13.5607C6.72956 13.3509 6.5867 13.0836 6.52882 12.7926C6.47094 12.5017 6.50065 12.2001 6.61418 11.926C6.72771 11.6519 6.91997 11.4176 7.16665 11.2528C7.41332 11.088 7.70333 11 8 11C8.39782 11 8.77936 11.158 9.06066 11.4393C9.34196 11.7206 9.5 12.1022 9.5 12.5ZM15 18V8C15 7.73478 14.8946 7.48043 14.7071 7.29289C14.5196 7.10536 14.2652 7 14 7H2C1.73478 7 1.48043 7.10536 1.29289 7.29289C1.10536 7.48043 1 7.73478 1 8V18C1 18.2652 1.10536 18.5196 1.29289 18.7071C1.48043 18.8946 1.73478 19 2 19H14C14.2652 19 14.5196 18.8946 14.7071 18.7071C14.8946 18.5196 15 18.2652 15 18Z" stroke="#969696" stroke-width="1.5" stroke-linecap="round" stroke-linejoin="round"/>
</svg>
