<svg width="28" height="28" viewBox="0 0 28 28" fill="none" xmlns="http://www.w3.org/2000/svg">
<path d="M19.8333 14H14M14 3.5C11.9233 3.5 9.89323 4.11581 8.16652 5.26957C6.4398 6.42332 5.09399 8.0632 4.29927 9.98182C3.50455 11.9004 3.29661 14.0116 3.70176 16.0484C4.1069 18.0852 5.10693 19.9562 6.57538 21.4246C8.04383 22.8931 9.91476 23.8931 11.9516 24.2982C13.9884 24.7034 16.0996 24.4955 18.0182 23.7007C19.9368 22.906 21.5767 21.5602 22.7304 19.8335C23.8842 18.1068 24.5 16.0767 24.5 14C24.5 11.2152 23.3938 8.54451 21.4246 6.57538C19.4555 4.60625 16.7848 3.5 14 3.5ZM8.59834 14.805L12.25 17.3017C12.4128 17.3992 12.5969 17.4556 12.7864 17.466C12.9759 17.4763 13.165 17.4402 13.3374 17.3609C13.5098 17.2816 13.6603 17.1615 13.7757 17.0109C13.8912 16.8602 13.9682 16.6838 14 16.4967V11.5033C13.9682 11.3162 13.8912 11.1398 13.7757 10.9891C13.6603 10.8385 13.5098 10.7184 13.3374 10.6391C13.165 10.5598 12.9759 10.5237 12.7864 10.534C12.5969 10.5444 12.4128 10.6008 12.25 10.6983L8.61 13.195C8.4745 13.2806 8.36269 13.3989 8.28482 13.539C8.20696 13.6791 8.16555 13.8365 8.16438 13.9968C8.16322 14.1571 8.20235 14.3151 8.27818 14.4563C8.354 14.5975 8.46409 14.7174 8.59834 14.805Z" stroke="#0F6D6A" stroke-width="1.5" stroke-linecap="round" stroke-linejoin="round"/>
</svg>
