<svg width="27" height="26" viewBox="0 0 27 26" fill="none" xmlns="http://www.w3.org/2000/svg">
<rect width="27" height="26" rx="5" fill="#0F6D6A"/>
<path d="M20.8362 5.71429C20.5925 5.47257 20.3009 5.28446 19.9803 5.16202C19.6596 5.03959 19.3169 4.98552 18.9741 5.00331C18.2766 5.04199 17.62 5.3446 17.1374 5.84971L9.62137 13.3319C9.58266 13.3744 9.5512 13.423 9.52826 13.4758C9.49488 13.5235 9.46652 13.5746 9.44362 13.6281L8.38562 17.0815C8.3479 17.2104 8.3414 17.3465 8.36668 17.4784C8.39196 17.6103 8.44827 17.7344 8.53098 17.8402C8.61368 17.9461 8.7204 18.0307 8.8423 18.0872C8.9642 18.1436 9.09779 18.1703 9.23202 18.1649C9.31053 18.1772 9.3905 18.1772 9.46901 18.1649L12.8546 17.1746L13.007 17.0899C13.0597 17.067 13.1083 17.0355 13.1509 16.9968L20.6584 9.48077C21.1636 8.99822 21.4662 8.34157 21.5048 7.64408C21.5379 7.29331 21.4953 6.93952 21.38 6.60661C21.2646 6.2737 21.0792 5.96941 20.8362 5.71429Z" fill="white"/>
<path d="M21.0816 21.5502H5.8464C5.62192 21.5502 5.40664 21.4611 5.24791 21.3023C5.08917 21.1436 5 20.9283 5 20.7038C5 20.4793 5.08917 20.2641 5.24791 20.1053C5.40664 19.9466 5.62192 19.8574 5.8464 19.8574H21.0816C21.3061 19.8574 21.5214 19.9466 21.6801 20.1053C21.8389 20.2641 21.928 20.4793 21.928 20.7038C21.928 20.9283 21.8389 21.1436 21.6801 21.3023C21.5214 21.4611 21.3061 21.5502 21.0816 21.5502Z" fill="white"/>
</svg>
