<svg width="14" height="13" viewBox="0 0 14 13" fill="none" xmlns="http://www.w3.org/2000/svg">
<path d="M12.6263 6.08L10.5473 8.04889L11.0342 10.822C11.084 11.0792 11.0634 11.3461 10.9749 11.5916C10.8864 11.8371 10.7336 12.051 10.5342 12.2085C10.3045 12.3963 10.0223 12.4987 9.73156 12.4997C9.53519 12.5014 9.34125 12.4539 9.16577 12.361L6.53419 10.9745L3.90261 12.361C3.68382 12.4728 3.43991 12.5186 3.19795 12.4932C2.95599 12.4678 2.72544 12.3722 2.5319 12.2171C2.33835 12.062 2.18938 11.8534 2.10153 11.6144C2.01367 11.3755 1.99037 11.1156 2.03419 10.8636L2.52103 8.09048L0.442086 6.1216C0.252953 5.94461 0.116241 5.71392 0.0483212 5.45716C-0.0195986 5.20041 -0.0158466 4.92846 0.0591265 4.67389C0.1341 4.41932 0.277116 4.19292 0.471051 4.02179C0.664986 3.85067 0.901618 3.74208 1.15261 3.70902L4.11314 3.29306L5.42893 0.727969C5.54167 0.507854 5.70882 0.323977 5.91266 0.19582C6.11651 0.0676633 6.34945 0 6.58682 0C6.82419 0 7.05713 0.0676633 7.26098 0.19582C7.46482 0.323977 7.63197 0.507854 7.74471 0.727969L9.0605 3.29306L12.021 3.70902C12.272 3.74208 12.5087 3.85067 12.7026 4.02179C12.8965 4.19292 13.0395 4.41932 13.1145 4.67389C13.1895 4.92846 13.1932 5.20041 13.1253 5.45716C13.0574 5.71392 12.9207 5.94461 12.7316 6.1216L12.6263 6.08Z" fill="#FFE34E"/>
</svg>
