<svg width="50" height="50" viewBox="0 0 50 50" fill="none" xmlns="http://www.w3.org/2000/svg">
<circle cx="25" cy="25" r="25" fill="#0F6D6A"/>
<path d="M36.7859 14.2126C36.8873 14.3142 36.9566 14.4433 36.9853 14.5839C37.0139 14.7245 37.0006 14.8704 36.947 15.0035L28.4253 36.3097C28.3502 36.4974 28.2248 36.6606 28.0629 36.7816C27.901 36.9025 27.7089 36.9765 27.5077 36.9952C27.3065 37.014 27.104 36.9769 26.9225 36.888C26.741 36.7991 26.5876 36.6618 26.4791 36.4913L21.825 29.1754L14.51 24.5208C14.3391 24.4124 14.2015 24.2589 14.1124 24.0772C14.0232 23.8955 13.986 23.6927 14.0047 23.4912C14.0235 23.2897 14.0976 23.0973 14.2188 22.9353C14.34 22.7732 14.5036 22.6478 14.6916 22.5728L35.9951 14.053C36.1282 13.9994 36.2741 13.9861 36.4147 14.0147C36.5553 14.0434 36.6844 14.1127 36.7859 14.2141V14.2126ZM23.2865 28.7478L27.3299 35.1014L34.2612 17.7717L23.2865 28.7478ZM33.2258 16.7362L15.8983 23.6684L22.2526 27.7108L33.2273 16.7362H33.2258Z" fill="white"/>
</svg>
