<svg width="60" height="60" viewBox="0 0 60 60" fill="none" xmlns="http://www.w3.org/2000/svg">
<circle cx="30" cy="30" r="30" fill="#0F6D6A"/>
<path fill-rule="evenodd" clip-rule="evenodd" d="M38.8392 38.8373C35.019 42.6579 29.3622 43.4834 24.733 41.3425C24.0496 41.0674 23.4894 40.845 22.9567 40.845C21.4731 40.8538 19.6265 42.2923 18.6667 41.3337C17.7069 40.3739 19.1466 38.5258 19.1466 37.0332C19.1466 36.5005 18.933 35.9502 18.6579 35.2655C16.516 30.637 17.3426 24.9784 21.1628 21.159C26.0395 16.2805 33.9625 16.2805 38.8392 21.1578C43.7247 26.0438 43.7159 33.9601 38.8392 38.8373Z" stroke="white" stroke-width="2.5" stroke-linecap="round" stroke-linejoin="round"/>
<path d="M34.9238 30.5161H34.9328" stroke="white" stroke-width="3.5" stroke-linecap="round" stroke-linejoin="round"/>
<path d="M29.9121 30.5161H29.9211" stroke="white" stroke-width="3.5" stroke-linecap="round" stroke-linejoin="round"/>
<path d="M24.9023 30.5161H24.9113" stroke="white" stroke-width="3.5" stroke-linecap="round" stroke-linejoin="round"/>
</svg>
