<svg width="24" height="24" viewBox="0 0 24 24" fill="none" xmlns="http://www.w3.org/2000/svg">
<path d="M21 12C21 12 18 18 12 18C6 18 3 12 3 12C3 12 6 6 12 6C18 6 21 12 21 12ZM12 14C12.3956 14 12.7822 13.8827 13.1111 13.6629C13.44 13.4432 13.6964 13.1308 13.8478 12.7654C13.9991 12.3999 14.0387 11.9978 13.9616 11.6098C13.8844 11.2219 13.6939 10.8655 13.4142 10.5858C13.1345 10.3061 12.7781 10.1156 12.3902 10.0384C12.0022 9.96126 11.6001 10.0009 11.2346 10.1522C10.8692 10.3036 10.5568 10.56 10.3371 10.8889C10.1173 11.2178 10 11.6044 10 12C10 12.5304 10.2107 13.0391 10.5858 13.4142C10.9609 13.7893 11.4696 14 12 14Z" stroke="#969696" stroke-width="1.5" stroke-linecap="round" stroke-linejoin="round"/>
</svg>
