<svg width="24" height="24" viewBox="0 0 24 24" fill="none" xmlns="http://www.w3.org/2000/svg">
<path d="M18 3H6C5.44772 3 5 3.44772 5 4V20C5 20.5523 5.44772 21 6 21H18C18.5523 21 19 20.5523 19 20V4C19 3.44772 18.5523 3 18 3Z" stroke="#0F6D6A" stroke-width="1.5" stroke-linecap="round" stroke-linejoin="round"/>
<path d="M9 17H15M9 13H15M9 6C9 6.26522 9.10536 6.51957 9.29289 6.70711C9.48043 6.89464 9.73478 7 10 7H14C14.2652 7 14.5196 6.89464 14.7071 6.70711C14.8946 6.51957 15 6.26522 15 6V3H9V6Z" stroke="#0F6D6A" stroke-width="1.5" stroke-linecap="round" stroke-linejoin="round"/>
</svg>
